<svg width="21" height="20" viewBox="0 0 21 20" fill="none" xmlns="http://www.w3.org/2000/svg">
<path d="M14.1842 18.7879C14.472 18.3983 14.9181 17.6335 15.1627 17.0851L15.6231 16.1183L16.0547 16.3636C16.285 16.5079 16.6878 16.7965 17.3929 17.3882L17.0763 17.7345C16.9037 17.9076 16.2994 18.3405 15.7094 18.6724C15.1339 19.0043 14.4288 19.3362 13.6663 19.5094L14.1842 18.7879Z" fill="#7100BF"/>
<path d="M4.29935 17.2583C4.34252 17.1861 4.70223 16.8975 5.11949 16.6089C5.53676 16.3348 5.89647 16.1039 5.93964 16.1039C5.96841 16.1039 6.18424 16.5512 6.41446 17.0851C6.64467 17.619 7.07633 18.3838 7.88208 19.4949L7.37849 19.3939C7.10511 19.3218 6.41446 19.0043 5.82453 18.6724C5.24899 18.3261 4.64467 17.9076 4.50079 17.7345C4.34252 17.5613 4.25618 17.3449 4.29935 17.2583Z" fill="#7100BF"/>
<path d="M11.1339 19.8557L11.1483 17.316L11.1627 14.7763L11.8389 14.8773C12.1986 14.9351 12.8893 15.0794 13.3641 15.1948C13.8389 15.3247 14.3569 15.4978 14.8461 15.7431L14.5008 16.6089C14.2994 17.0851 13.9109 17.8066 13.6087 18.1962C13.3209 18.5859 12.8029 19.1198 12.4576 19.3795C12.1267 19.6537 11.695 19.8557 11.1339 19.8557Z" fill="#7100BF"/>
<path d="M7.22021 15.5123C7.52237 15.368 8.21302 15.1659 8.75978 15.0505C9.32093 14.9351 9.91086 14.8341 10.4145 14.8052V20L9.95403 19.8557C9.69503 19.7835 9.24899 19.5238 8.97561 19.3074C8.70223 19.0765 8.22741 18.5714 7.93964 18.1818C7.63748 17.7922 7.2346 17.0851 6.70223 15.7431L7.22021 15.5123Z" fill="#7100BF"/>
<path d="M16.1555 14.0115C16.2994 13.3045 16.472 12.1789 16.5296 11.5296L16.6303 10.3319H18.7022C20.4432 10.3319 20.7742 10.3752 20.7742 10.5483C20.7742 10.6782 20.6878 11.241 20.5727 11.8182C20.4576 12.3954 20.2274 13.2179 20.0547 13.6508C19.8821 14.0981 19.5224 14.8052 19.249 15.2381C18.99 15.6854 18.6015 16.2193 18.0404 16.8254L17.5799 16.4358C17.3209 16.2193 16.8461 15.873 16.5296 15.6854C16.213 15.4978 15.9396 15.3391 15.9253 15.3247C15.9109 15.3247 16.0116 14.733 16.1555 14.0115Z" fill="#7100BF"/>
<path d="M11.177 12.3665C11.1627 11.4719 11.177 10.6349 11.2058 10.5339C11.2634 10.3896 11.7958 10.3463 15.8101 10.3463L15.695 11.6017C15.6375 12.2944 15.4936 13.29 15.3785 13.8095C15.2634 14.329 15.1483 14.7619 15.1339 14.7908C15.1195 14.8052 14.6447 14.6898 14.0835 14.531C13.5368 14.3723 12.6591 14.1847 11.2058 14.026L11.177 12.3665Z" fill="#7100BF"/>
<path d="M6.18424 13.8095C6.06913 13.29 5.92525 12.2944 5.8677 11.6017L5.78136 10.3319L10.3425 10.4185V14.026L9.40726 14.127C8.90367 14.1847 8.02597 14.3723 7.46482 14.531C6.91806 14.6898 6.44323 14.8052 6.42885 14.7908C6.40007 14.7619 6.28496 14.329 6.18424 13.8095Z" fill="#7100BF"/>
<path d="M0.975609 11.8326C0.860501 11.2554 0.77417 10.6782 0.77417 10.5628C0.77417 10.3752 1.09072 10.3463 4.94683 10.3463L5.03316 11.544C5.07633 12.1934 5.2346 13.3189 5.37849 14.026L5.3785 14.026C5.52238 14.7475 5.63748 15.3247 5.62309 15.3391C5.59431 15.3391 5.29216 15.5267 4.94683 15.7431C4.58712 15.974 4.1123 16.3203 3.52237 16.912L3.14827 16.4791C2.94683 16.2482 2.55834 15.6854 2.28496 15.2525C2.02597 14.8196 1.65187 14.0981 1.47921 13.6652C1.32093 13.2323 1.07633 12.3954 0.975609 11.8326Z" fill="#7100BF"/>
<path d="M12.1411 5.84416C12.6447 5.78644 13.4648 5.61328 13.9396 5.45455C14.4145 5.31024 14.8749 5.18037 14.9756 5.16594C15.0763 5.16594 15.1914 5.29581 15.2346 5.48341C15.2634 5.65657 15.3641 6.1039 15.4504 6.49351C15.5224 6.86869 15.6375 7.72006 15.8101 9.62482H11.1339L11.2058 5.94517L12.1411 5.84416Z" fill="#7100BF"/>
<path d="M6.09791 6.49351C6.16985 6.1039 6.27057 5.65657 6.31374 5.48341C6.3569 5.29581 6.41446 5.15152 6.45762 5.15152C6.4864 5.15152 6.96122 5.28138 7.49359 5.44011C8.02597 5.61328 8.88928 5.78644 10.3425 5.94517L10.4145 9.62482H5.7382L5.83892 8.39827C5.89647 7.72006 6.01158 6.86869 6.09791 6.49351Z" fill="#7100BF"/>
<path d="M16.6735 4.1847C17.0619 3.93939 17.508 3.59307 17.6663 3.43434C17.8101 3.26118 17.9972 3.13131 18.0835 3.13131C18.1699 3.13131 18.5008 3.50649 18.8029 3.96825C19.1051 4.41558 19.5368 5.18038 19.767 5.65657C19.9828 6.13276 20.2706 6.88312 20.3857 7.31602C20.5008 7.74892 20.6303 8.45599 20.7742 9.62482H16.6015L16.5152 8.51371C16.4576 7.89322 16.2994 6.76768 16.1555 6.01732C16.0116 5.26695 15.8965 4.64646 15.9253 4.63203C15.9389 4.63203 16.2363 4.45093 16.6098 4.22344L16.6735 4.1847Z" fill="#7100BF"/>
<path d="M1.76698 5.65657C1.99719 5.18038 2.47201 4.41558 2.80295 3.96825C3.14827 3.50649 3.46482 3.13131 3.50798 3.13131C3.53676 3.13131 3.70942 3.26118 3.8677 3.43434C4.02597 3.59307 4.47201 3.93939 4.87489 4.1847C5.26338 4.43001 5.59431 4.63203 5.62309 4.63203C5.63748 4.64646 5.52237 5.26695 5.37849 6.01732C5.2346 6.76768 5.07633 7.89322 4.94683 9.62482H0.77417L0.860501 8.87446C0.903666 8.45599 1.04755 7.74892 1.14827 7.31602C1.26338 6.88312 1.55115 6.13276 1.76698 5.65657Z" fill="#7100BF"/>
<path d="M15.1483 2.886C14.9037 2.33766 14.4864 1.60173 14.213 1.22655C13.8101 0.663781 13.767 0.533911 13.9684 0.533911C14.1123 0.533911 14.6735 0.764791 15.2346 1.03896C15.7814 1.32756 16.5152 1.77489 17.4648 2.55411L16.8461 3.04473C16.5152 3.30447 16.0835 3.6075 15.9109 3.69408C15.6087 3.83838 15.5655 3.79509 15.1483 2.886Z" fill="#7100BF"/>
<path d="M4.68784 2.04906C5.01877 1.77489 5.75259 1.32756 6.31374 1.03896C6.8605 0.764791 7.42165 0.533911 7.56554 0.533911C7.76698 0.533911 7.72381 0.663781 7.32093 1.22655C7.04755 1.60173 6.63029 2.33766 6.38568 2.886C5.96841 3.79509 5.92525 3.83838 5.62309 3.69408C5.45043 3.6075 5.01877 3.30447 4.08352 2.55411L4.68784 2.04906Z" fill="#7100BF"/>
<path d="M11.1051 2.65512C11.0907 1.26984 11.1195 0.11544 11.177 0.0721501C11.2346 0.01443 11.4504 0.04329 11.6663 0.11544C11.8821 0.18759 12.3569 0.49062 12.7022 0.779221C13.0476 1.08225 13.5511 1.65945 13.7958 2.04906C14.0547 2.4531 14.4001 3.11688 14.8749 4.28571L14.2562 4.51659C13.9252 4.64646 13.177 4.83405 12.6015 4.94949C12.026 5.06493 11.4648 5.15152 11.3497 5.15152C11.1627 5.15152 11.1195 4.7619 11.1051 2.65512Z" fill="#7100BF"/>
<path d="M8.83172 0.779221C9.19144 0.47619 9.66626 0.17316 9.91086 0.11544L10.3425 0L10.3713 2.53968C10.3857 3.93939 10.3857 5.09379 10.3713 5.12265C10.3569 5.15151 9.85331 5.09379 9.26338 4.99278C8.65906 4.9062 7.83892 4.70418 6.67345 4.28571L6.97561 3.53535C7.13388 3.11688 7.47921 2.4531 7.7382 2.04906C7.9828 1.65945 8.4864 1.08225 8.83172 0.779221Z" fill="#7100BF"/>
</svg>
